<svg width="60" height="60" viewBox="0 0 60 60" fill="none" xmlns="http://www.w3.org/2000/svg">
<g clip-path="url(#clip0_103_21)">
<path fill-rule="evenodd" clip-rule="evenodd" d="M30 5C35.9674 5 41.6903 7.37053 45.9099 11.5901C50.1295 15.8097 52.5 21.5326 52.5 27.5C52.5 35.185 48.31 41.475 43.895 45.9875C41.6888 48.2172 39.282 50.2391 36.705 52.0275L35.64 52.7525L35.14 53.085L34.1975 53.685L33.3575 54.1975L32.3175 54.8025C31.6113 55.2045 30.8126 55.4158 30 55.4158C29.1874 55.4158 28.3887 55.2045 27.6825 54.8025L26.6425 54.1975L25.3425 53.3975L24.8625 53.085L23.8375 52.4025C21.0574 50.5208 18.4677 48.3723 16.105 45.9875C11.69 41.47 7.5 35.185 7.5 27.5C7.5 21.5326 9.87053 15.8097 14.0901 11.5901C18.3097 7.37053 24.0326 5 30 5ZM30 10C25.3587 10 20.9075 11.8437 17.6256 15.1256C14.3437 18.4075 12.5 22.8587 12.5 27.5C12.5 33.305 15.68 38.4 19.6775 42.49C21.3966 44.2297 23.2544 45.8267 25.2325 47.265L26.3775 48.08C26.7475 48.3375 27.1025 48.5775 27.445 48.8L28.42 49.425L29.2775 49.9475L30 50.37L31.1375 49.6975L32.055 49.1225C32.5425 48.8125 33.0675 48.465 33.6225 48.08L34.7675 47.265C36.7456 45.8267 38.6034 44.2297 40.3225 42.49C44.32 38.4025 47.5 33.305 47.5 27.5C47.5 22.8587 45.6563 18.4075 42.3744 15.1256C39.0925 11.8437 34.6413 10 30 10ZM30 17.5C32.6522 17.5 35.1957 18.5536 37.0711 20.4289C38.9464 22.3043 40 24.8478 40 27.5C40 30.1522 38.9464 32.6957 37.0711 34.5711C35.1957 36.4464 32.6522 37.5 30 37.5C27.3478 37.5 24.8043 36.4464 22.9289 34.5711C21.0536 32.6957 20 30.1522 20 27.5C20 24.8478 21.0536 22.3043 22.9289 20.4289C24.8043 18.5536 27.3478 17.5 30 17.5ZM30 22.5C28.6739 22.5 27.4021 23.0268 26.4645 23.9645C25.5268 24.9021 25 26.1739 25 27.5C25 28.8261 25.5268 30.0979 26.4645 31.0355C27.4021 31.9732 28.6739 32.5 30 32.5C31.3261 32.5 32.5979 31.9732 33.5355 31.0355C34.4732 30.0979 35 28.8261 35 27.5C35 26.1739 34.4732 24.9021 33.5355 23.9645C32.5979 23.0268 31.3261 22.5 30 22.5Z" fill="#5B768D"/>
</g>
<defs>
<clipPath id="clip0_103_21">
<rect width="60" height="60" fill="white"/>
</clipPath>
</defs>
</svg>
