<svg width="60" height="60" viewBox="0 0 60 60" fill="none" xmlns="http://www.w3.org/2000/svg">
<path d="M21.25 17.5C21.25 13.3675 25 7.5 30 7.5C35 7.5 38.75 13.3675 38.75 17.5M10 17.5L12.1675 47.8575C12.258 49.1207 12.8245 50.3024 13.7526 51.1641C14.6806 52.0258 15.9011 52.5032 17.1675 52.5H42.8575C44.1239 52.5032 45.3444 52.0258 46.2724 51.1641C47.2005 50.3024 47.767 49.1207 47.8575 47.8575L50.025 17.5H10.025H10Z" stroke="#5B768D" stroke-width="2" stroke-linecap="round" stroke-linejoin="round"/>
<path d="M23.75 42.5C24.7825 43.655 26.25 45 30 45C33.75 45 36.25 42.7575 36.25 40C36.25 37.2425 33.75 36.25 30 35C26.25 33.75 25 31.325 25 30C25 27.24 27.5 25 30 25C32.5 25 33.75 25 36.25 27.5" stroke="#5B768D" stroke-width="2" stroke-linecap="round" stroke-linejoin="round"/>
</svg>
